<svg width="272" height="483" viewBox="0 0 272 483" fill="none" xmlns="http://www.w3.org/2000/svg">
<mask id="mask0_204_2267" style="mask-type:alpha" maskUnits="userSpaceOnUse" x="0" y="0" width="272" height="470">
<rect width="272" height="470" rx="10" fill="#414141"/>
</mask>
<g mask="url(#mask0_204_2267)">
</g>
<mask id="mask1_204_2267" style="mask-type:alpha" maskUnits="userSpaceOnUse" x="0" y="0" width="272" height="483">
<rect width="272" height="483" rx="10" fill="#414141"/>
</mask>
<g mask="url(#mask1_204_2267)">
<rect width="272" height="483" rx="10" fill="#F280CB"/>
<path d="M122.5 510.5L78 468L85.5 444L200 358L285.5 339L307.5 482.5L122.5 510.5Z" fill="#363242"/>
<path d="M235.526 478.489L228.765 482.719L193.711 428.922L200.472 424.694L235.526 478.489Z" fill="#0640F2"/>
<path d="M137.355 332.193C137.355 332.193 50.5398 392.127 77.901 467.96C77.901 467.96 102.987 451.661 121.699 465.555C121.699 465.555 102.259 430.708 113.592 388.447C124.589 347.437 137.355 332.195 137.355 332.195V332.193Z" fill="#F20605"/>
<path d="M168.926 450.817C169.194 450.89 176.823 442.882 177.41 442.357C183.33 437.07 189.963 432.05 197.005 427.599L137.355 332.193C123.333 395.264 168.926 450.817 168.926 450.817Z" fill="#F20605"/>
<path d="M137.355 332.193C137.355 332.193 124.589 347.437 113.592 388.445C102.259 430.708 121.699 465.554 121.699 465.554C121.699 465.554 142.148 443.621 168.926 450.815C168.926 450.815 123.333 395.262 137.355 332.192V332.193Z" fill="#0640F2"/>
<path d="M137.355 332.193C137.355 332.193 229.235 280.359 285.426 338.161C285.426 338.161 259.793 353.585 264.09 376.495C264.09 376.495 241.274 343.759 198.324 335.449C156.645 327.387 137.355 332.193 137.355 332.193Z" fill="#F20605"/>
<path d="M230.168 412.513C230.116 412.784 219.578 416.141 218.848 416.438C211.503 419.447 204.087 423.215 197.005 427.599L137.355 332.193C200.188 347.193 230.168 412.511 230.168 412.511V412.513Z" fill="#F20605"/>
<path d="M137.355 332.193C137.355 332.193 156.645 327.387 198.324 335.449C241.275 343.759 264.09 376.495 264.09 376.495C264.09 376.495 235.422 385.284 230.166 412.513C230.166 412.513 200.188 347.193 137.353 332.195L137.355 332.193Z" fill="#0640F2"/>
<path d="M144.047 334.434L137.284 338.664L128.607 326.103C127.44 324.235 128.007 321.774 129.874 320.607C131.742 319.44 134.203 320.007 135.37 321.874L144.047 334.436V334.434Z" fill="#0640F2"/>
<path d="M31.1531 283.871C30.2566 281.866 29.2964 279.889 28.4494 277.861C28.0642 276.94 27.6959 275.98 27.4991 275C27.3022 275.98 26.9326 276.94 26.5487 277.861C25.7004 279.889 24.7415 281.864 23.845 283.871C22.9372 285.902 21.6582 288.014 22.0845 290.314C22.5519 292.83 24.9667 294.932 27.4977 295H27.5019C30.0328 294.933 32.4476 292.83 32.915 290.314C33.3428 288.012 32.0624 285.901 31.1546 283.871H31.1531Z" fill="#F2F0D7"/>
<path d="M66.3415 346.909C65.0349 343.99 63.6355 341.113 62.4014 338.163C61.8401 336.823 61.303 335.425 61.0149 334C60.7287 335.427 60.1898 336.825 59.6285 338.163C58.3926 341.114 56.995 343.991 55.6884 346.909C54.3652 349.864 52.5011 352.938 53.1237 356.287C53.8039 359.949 57.3239 363.008 61.0112 363.106H61.0168C64.7041 363.008 68.2242 359.949 68.9044 356.287C69.527 352.938 67.6629 349.864 66.3396 346.909H66.3415Z" fill="#F2F0D7"/>
<path d="M216.301 252.001C215.39 249.966 214.415 247.96 213.554 245.903C213.164 244.97 212.788 243.994 212.588 243C212.387 243.994 212.013 244.968 211.621 245.903C210.761 247.96 209.785 249.966 208.874 252.001C207.953 254.06 206.652 256.203 207.086 258.537C207.56 261.089 210.015 263.223 212.586 263.291H212.59C215.16 263.223 217.615 261.091 218.089 258.537C218.524 256.203 217.223 254.06 216.301 252.001Z" fill="#F2F0D7"/>
<path d="M244.604 280.311C243.565 278.205 242.454 276.131 241.473 274.003C241.027 273.037 240.599 272.03 240.371 271C240.142 272.03 239.714 273.037 239.268 274.003C238.287 276.131 237.176 278.205 236.137 280.311C235.087 282.443 233.604 284.658 234.098 287.074C234.639 289.715 237.436 291.921 240.367 291.992H240.372C243.303 291.921 246.1 289.715 246.641 287.074C247.136 284.658 245.654 282.443 244.602 280.311H244.604Z" fill="#F2F0D7"/>
<path d="M59.8132 80.7438C57.7761 76.7329 55.5937 72.7767 53.6655 68.7227C52.7901 66.8817 51.9511 64.9624 51.5033 63C51.0556 64.9624 50.2165 66.8817 49.3411 68.7227C47.4129 72.7767 45.2346 76.7329 43.1934 80.7438C41.1321 84.8057 38.2236 89.0282 39.1918 93.6306C40.2527 98.6639 45.7429 102.867 51.4953 103H51.5033C57.2557 102.867 62.7459 98.66 63.8068 93.6306C64.779 89.0282 61.8705 84.8018 59.8051 80.7438H59.8132Z" fill="#F2F0D7"/>
</g>
</svg>
