<svg width="272" height="483" viewBox="0 0 272 483" fill="none" xmlns="http://www.w3.org/2000/svg">
<mask id="mask0_202_2132" style="mask-type:alpha" maskUnits="userSpaceOnUse" x="0" y="0" width="272" height="483">
<rect width="272" height="483" rx="10" fill="#414141"/>
</mask>
<g mask="url(#mask0_202_2132)">
<rect width="272" height="483" rx="10" fill="#E6E6E4"/>
<mask id="mask1_202_2132" style="mask-type:luminance" maskUnits="userSpaceOnUse" x="43" y="354" width="255" height="133">
<path d="M297.188 354H43V486.474H297.188V354Z" fill="white"/>
</mask>
<g mask="url(#mask1_202_2132)">
<path d="M118.782 415.705L51.5642 462.02C49.6603 463.332 48.5249 465.494 48.5249 467.805V471.302C48.5249 473.311 50.1546 474.94 52.1633 474.94H234.905L298.526 415.705H118.782Z" fill="#F26E50"/>
<path d="M52.0935 448.324C52.0935 448.324 56.8289 458.348 54.263 467.62H231.418L285.578 418.769V394.004L225.795 448.324H52.0935Z" fill="#5BBF7C"/>
<path d="M118.782 389.003L51.6551 435.255C49.6952 436.605 48.5232 438.834 48.5232 441.214V442.886C48.5232 445.842 50.9197 448.238 53.8752 448.238H227.383L291.004 389.003H118.782Z" fill="#F26E50"/>
<path d="M99.7216 448.24C115.397 448.24 128.104 445.019 128.104 441.047C128.104 437.074 115.397 433.854 99.7216 433.854C84.0463 433.854 71.339 437.074 71.339 441.047C71.339 445.019 84.0463 448.24 99.7216 448.24Z" fill="#1D1C1A"/>
<path d="M183.785 448.24C199.201 448.24 211.699 445.019 211.699 441.047C211.699 437.074 199.201 433.854 183.785 433.854C168.368 433.854 155.87 437.074 155.87 441.047C155.87 445.019 168.368 448.24 183.785 448.24Z" fill="#1D1C1A"/>
<path d="M156.862 416.259C159.984 414.594 163.175 413.052 166.279 411.363C168.941 409.915 174.945 406.442 171.841 402.757C169.565 400.056 157.83 391.286 165.979 388.718C173.965 386.203 176.012 385.766 181.145 397.492C186.279 409.218 176.405 414.54 176.405 414.54L118.363 445.153L100.436 445.195L156.862 416.259Z" fill="#1D1C1A"/>
<path d="M267.858 394.939C269.08 398.605 266.189 400.068 263.357 402.086L202.428 437.602C202.433 437.606 209.2 443.821 209.2 443.821L273.969 402.271C273.969 402.271 284.385 394.939 281.301 391.273C278.217 387.607 273.969 386.21 270.914 388.829C267.858 391.447 266.636 391.273 267.858 394.939Z" fill="#1D1C1A"/>
<path d="M184.18 376.249C167.346 376.249 153.701 391.712 153.701 410.787C153.701 429.861 167.346 445.325 184.18 445.325C201.013 445.325 214.658 429.861 214.658 410.787C214.658 391.712 201.013 376.249 184.18 376.249ZM184.393 436.865C172.045 436.865 162.034 425.19 162.034 410.787C162.034 396.383 172.045 384.708 184.393 384.708C196.74 384.708 206.751 396.383 206.751 410.787C206.751 425.19 196.74 436.865 184.393 436.865Z" fill="#05C7F3"/>
<path d="M249.711 389.1C252.67 387.161 255.556 385.103 258.529 383.191C261.077 381.551 267.006 377.952 268.747 382.445C270.024 385.737 272.082 400.242 278.246 394.328C284.288 388.531 285.652 386.944 277.832 376.812C270.012 366.679 260.602 372.785 260.602 372.785L208.595 404.409L210.777 412.858L249.711 389.102V389.1Z" fill="#05C7F3"/>
<path d="M138.822 381.153C141.9 379.412 144.913 377.544 148.003 375.829C150.653 374.358 156.803 371.151 158.249 375.747C159.31 379.116 160.42 393.723 166.957 388.22C173.362 382.828 174.827 381.333 167.68 370.713C160.532 360.093 150.747 365.576 150.747 365.576L75.3337 409.38L76.9617 417.953L138.82 381.151L138.822 381.153Z" fill="#05C7F3"/>
<path d="M128.188 412.373C128.188 412.373 134.171 407.91 141.271 407.91C148.372 407.91 153.699 412.373 153.699 412.373L154.489 404.472C154.489 404.472 151.587 401.038 141.337 401.038C132.787 401.038 128.186 405.415 128.186 405.415V412.373H128.188Z" fill="#05C7F3"/>
<path d="M98.8115 376.249C81.9783 376.249 68.3328 391.712 68.3328 410.787C68.3328 429.861 81.9783 445.325 98.8115 445.325C115.645 445.325 129.29 429.861 129.29 410.787C129.29 391.712 115.645 376.249 98.8115 376.249ZM99.0246 436.865C86.677 436.865 76.6665 425.19 76.6665 410.787C76.6665 396.383 86.677 384.708 99.0246 384.708C111.372 384.708 121.383 396.383 121.383 410.787C121.383 425.19 111.372 436.865 99.0246 436.865Z" fill="#05C7F3"/>
<path d="M130.7 437.824C130.7 437.824 135.648 439.934 142.749 439.934C149.849 439.934 161.629 436.633 161.629 436.633L157.145 443.195C157.145 443.195 146.613 446.507 136.363 446.507C127.813 446.507 121.947 442.145 121.947 442.145L130.698 437.824H130.7Z" fill="#1D1C1A"/>
</g>
</g>
<path d="M53.4062 65.8125L53.4062 58" stroke="#05C7F3" stroke-width="3"/>
<path d="M53.4062 78L53.4062 70.1875" stroke="#05C7F3" stroke-width="3"/>
<path d="M55.5938 68L63.4062 68" stroke="#05C7F3" stroke-width="3"/>
<path d="M43.0938 68L50.9062 68" stroke="#05C7F3" stroke-width="3"/>
<path d="M47.7322 397.938H36.0615" stroke="#05C7F3" stroke-width="3"/>
<path d="M65.9385 397.938H54.2678" stroke="#05C7F3" stroke-width="3"/>
<path d="M51 394.671L51 383" stroke="#05C7F3" stroke-width="3"/>
<path d="M51 413.344L51 401.673" stroke="#05C7F3" stroke-width="3"/>
<path d="M234.139 243.883L227.736 237.48" stroke="#05C7F3" stroke-width="3"/>
<path d="M244.128 253.872L237.725 247.469" stroke="#05C7F3" stroke-width="3"/>
<path d="M237.725 243.883L244.128 237.48" stroke="#05C7F3" stroke-width="3"/>
<path d="M227.48 254.128L233.883 247.725" stroke="#05C7F3" stroke-width="3"/>
<path d="M29.6992 358.515L25.0875 353.903" stroke="#05C7F3" stroke-width="3"/>
<path d="M36.8935 365.709L32.2817 361.097" stroke="#05C7F3" stroke-width="3"/>
<path d="M32.2818 358.515L36.8935 353.903" stroke="#05C7F3" stroke-width="3"/>
<path d="M24.903 365.893L29.5147 361.282" stroke="#05C7F3" stroke-width="3"/>
<path d="M217.029 344.072L217.029 337.55" stroke="#05C7F3" stroke-width="3"/>
<path d="M217.029 354.246L217.029 347.724" stroke="#05C7F3" stroke-width="3"/>
<path d="M218.855 345.898L225.377 345.898" stroke="#05C7F3" stroke-width="3"/>
<path d="M208.42 345.898L214.942 345.898" stroke="#05C7F3" stroke-width="3"/>
</svg>
