<svg width="272" height="272" viewBox="0 0 272 272" fill="none" xmlns="http://www.w3.org/2000/svg">
<mask id="mask0_202_2192" style="mask-type:alpha" maskUnits="userSpaceOnUse" x="0" y="0" width="272" height="272">
<rect width="272" height="272" rx="10" fill="#414141"/>
</mask>
<g mask="url(#mask0_202_2192)">
<rect width="272" height="272" rx="10" fill="#E6E6E4"/>
<mask id="mask1_202_2192" style="mask-type:luminance" maskUnits="userSpaceOnUse" x="48" y="156" width="235" height="123">
<path d="M283 156H48V278.474H283V156Z" fill="white"/>
</mask>
<g mask="url(#mask1_202_2192)">
<path d="M118.061 213.047L55.9178 255.866C54.1576 257.079 53.1079 259.078 53.1079 261.214V264.447C53.1079 266.304 54.6146 267.811 56.4717 267.811H225.418L284.237 213.047H118.061Z" fill="#F26E50"/>
<path d="M56.4071 243.203C56.4071 243.203 60.785 252.471 58.4128 261.043H222.195L272.267 215.88V192.984L216.997 243.203H56.4071Z" fill="#5BBF7C"/>
<path d="M118.061 188.361L56.0018 231.121C54.1899 232.369 53.1063 234.43 53.1063 236.631V238.176C53.1063 240.909 55.3219 243.124 58.0543 243.124H218.465L277.283 188.361H118.061Z" fill="#F26E50"/>
<path d="M100.44 243.126C114.932 243.126 126.68 240.149 126.68 236.476C126.68 232.803 114.932 229.826 100.44 229.826C85.9479 229.826 74.1998 232.803 74.1998 236.476C74.1998 240.149 85.9479 243.126 100.44 243.126Z" fill="#1D1C1A"/>
<path d="M178.157 243.126C192.41 243.126 203.965 240.149 203.965 236.476C203.965 232.803 192.41 229.826 178.157 229.826C163.904 229.826 152.35 232.803 152.35 236.476C152.35 240.149 163.904 243.126 178.157 243.126Z" fill="#1D1C1A"/>
<path d="M153.267 213.559C156.153 212.02 159.103 210.594 161.973 209.033C164.434 207.694 169.984 204.484 167.115 201.076C165.011 198.58 154.162 190.471 161.695 188.098C169.079 185.772 170.971 185.368 175.717 196.209C180.463 207.05 171.335 211.97 171.335 211.97L117.674 240.273L101.1 240.311L153.267 213.559Z" fill="#1D1C1A"/>
<path d="M255.885 193.849C257.015 197.238 254.341 198.59 251.723 200.456L195.393 233.291C195.398 233.295 201.654 239.041 201.654 239.041L261.534 200.628C261.534 200.628 271.164 193.849 268.313 190.459C265.462 187.07 261.534 185.779 258.709 188.2C255.885 190.621 254.755 190.459 255.885 193.849Z" fill="#1D1C1A"/>
<path d="M178.522 176.569C162.96 176.569 150.344 190.866 150.344 208.5C150.344 226.134 162.96 240.431 178.522 240.431C194.085 240.431 206.7 226.134 206.7 208.5C206.7 190.866 194.085 176.569 178.522 176.569ZM178.719 232.61C167.304 232.61 158.049 221.816 158.049 208.5C158.049 195.184 167.304 184.39 178.719 184.39C190.135 184.39 199.39 195.184 199.39 208.5C199.39 221.816 190.135 232.61 178.719 232.61Z" fill="#05C7F3"/>
<path d="M239.107 188.45C241.843 186.658 244.511 184.755 247.259 182.987C249.615 181.471 255.096 178.144 256.706 182.298C257.887 185.342 259.789 198.752 265.488 193.284C271.074 187.924 272.335 186.458 265.105 177.09C257.875 167.722 249.176 173.367 249.176 173.367L201.095 202.604L203.112 210.415L239.107 188.452V188.45Z" fill="#05C7F3"/>
<path d="M136.589 181.103C139.434 179.493 142.22 177.767 145.077 176.181C147.526 174.822 153.212 171.857 154.549 176.105C155.53 179.221 156.557 192.724 162.6 187.637C168.521 182.652 169.876 181.27 163.268 171.451C156.66 161.633 147.614 166.702 147.614 166.702L77.8929 207.2L79.398 215.126L136.587 181.102L136.589 181.103Z" fill="#05C7F3"/>
<path d="M126.758 209.966C126.758 209.966 132.289 205.84 138.853 205.84C145.417 205.84 150.343 209.966 150.343 209.966L151.073 202.662C151.073 202.662 148.39 199.487 138.914 199.487C131.01 199.487 126.756 203.534 126.756 203.534V209.966H126.758Z" fill="#05C7F3"/>
<path d="M99.5986 176.569C84.0361 176.569 71.4207 190.866 71.4207 208.5C71.4207 226.134 84.0361 240.431 99.5986 240.431C115.161 240.431 127.777 226.134 127.777 208.5C127.777 190.866 115.161 176.569 99.5986 176.569ZM99.7956 232.61C88.3801 232.61 79.1252 221.816 79.1252 208.5C79.1252 195.184 88.3801 184.39 99.7956 184.39C111.211 184.39 120.466 195.184 120.466 208.5C120.466 221.816 111.211 232.61 99.7956 232.61Z" fill="#05C7F3"/>
<path d="M129.08 233.496C129.08 233.496 133.655 235.447 140.219 235.447C146.784 235.447 157.674 232.395 157.674 232.395L153.529 238.462C153.529 238.462 143.791 241.524 134.315 241.524C126.41 241.524 120.988 237.492 120.988 237.492L129.078 233.496H129.08Z" fill="#1D1C1A"/>
</g>
</g>
<path d="M27.5 242H15" stroke="#05C7F3" stroke-width="3"/>
<path d="M47 242H34.5" stroke="#05C7F3" stroke-width="3"/>
<path d="M31 238.5L31 226" stroke="#05C7F3" stroke-width="3"/>
<path d="M31 258.5L31 246" stroke="#05C7F3" stroke-width="3"/>
<path d="M233.506 45.1526L224.667 36.3137" stroke="#05C7F3" stroke-width="3"/>
<path d="M247.295 58.9411L238.456 50.1023" stroke="#05C7F3" stroke-width="3"/>
<path d="M238.456 45.1526L247.295 36.3137" stroke="#05C7F3" stroke-width="3"/>
<path d="M224.314 59.2947L233.153 50.4559" stroke="#05C7F3" stroke-width="3"/>
<path d="M22.6991 95.5052L18.0874 90.8935" stroke="#05C7F3" stroke-width="3"/>
<path d="M29.8935 102.699L25.2817 98.0877" stroke="#05C7F3" stroke-width="3"/>
<path d="M25.2818 95.5052L29.8936 90.8935" stroke="#05C7F3" stroke-width="3"/>
<path d="M17.903 102.884L22.5148 98.2722" stroke="#05C7F3" stroke-width="3"/>
<path d="M217.029 146.072L217.029 139.55" stroke="#05C7F3" stroke-width="3"/>
<path d="M217.029 156.246L217.029 149.724" stroke="#05C7F3" stroke-width="3"/>
<path d="M218.855 147.898L225.377 147.898" stroke="#05C7F3" stroke-width="3"/>
<path d="M208.42 147.898L214.942 147.898" stroke="#05C7F3" stroke-width="3"/>
</svg>
