<svg width="272" height="470" viewBox="0 0 272 470" fill="none" xmlns="http://www.w3.org/2000/svg">
<mask id="mask0_204_2409" style="mask-type:alpha" maskUnits="userSpaceOnUse" x="0" y="0" width="272" height="470">
<rect width="272" height="470" rx="10" fill="#414141"/>
</mask>
<g mask="url(#mask0_204_2409)">
</g>
<mask id="mask1_204_2409" style="mask-type:alpha" maskUnits="userSpaceOnUse" x="0" y="0" width="272" height="470">
<rect width="272" height="470" rx="10" fill="#414141"/>
</mask>
<g mask="url(#mask1_204_2409)">
<rect width="272" height="470" rx="10" fill="#0320F3"/>
<path d="M97.3246 354.221C97.3246 340.982 108.057 330.25 121.295 330.25C134.534 330.25 145.266 340.982 145.266 354.221H97.3246Z" fill="#488C35"/>
<path d="M81.2701 419.297C102.007 419.297 118.817 402.487 118.817 381.75C118.817 361.013 102.007 344.202 81.2701 344.202C60.5332 344.202 43.7226 361.013 43.7226 381.75C43.7226 402.487 60.5332 419.297 81.2701 419.297Z" fill="#8E8E8E"/>
<path d="M3.29842 353.03C32.9938 338.597 51.4532 349.689 56.9709 357.039V379.088L66 422.686L60.9839 432.709L41.9226 445.738L10.8227 455.259L1.77271 458C-45.9079 422.686 -26.397 367.462 3.29842 353.03Z" fill="#8E8E8E"/>
<path d="M118.818 381.75C134.332 381.75 146.91 369.172 146.91 353.657C146.91 338.143 134.332 325.565 118.818 325.565C103.303 325.565 90.7255 338.143 90.7255 353.657C90.7255 369.172 103.303 381.75 118.818 381.75Z" fill="#8E8E8E"/>
<path d="M257.473 471.837C272.988 471.837 285.565 459.259 285.565 443.745C285.565 428.23 272.988 415.653 257.473 415.653C241.959 415.653 229.381 428.23 229.381 443.745C229.381 459.259 241.959 471.837 257.473 471.837Z" fill="#8E8E8E"/>
<path d="M149.154 344.456C149.154 344.456 204.545 321.53 256.498 332.225C308.451 342.92 278.801 433.508 259.171 437.278C239.542 441.047 205.974 433.075 205.974 433.075L151.445 402.055L138.839 349.94L149.154 344.456Z" fill="#478B35"/>
<path d="M164.043 344.456C164.043 344.456 228.61 346.984 240.836 358.132C253.059 369.281 247.712 382.878 237.78 381.428C227.847 379.979 209.077 379.059 199.172 381.428C189.267 383.798 175.895 372.338 175.895 372.338L164.043 344.458V344.456Z" fill="#F2B3AC"/>
<path d="M175.895 349.94C175.895 349.94 211.421 355.278 212.854 363.091C214.286 370.904 206.118 379.057 199.17 381.427C192.223 383.796 177.613 369.184 177.613 369.184L175.895 349.94Z" fill="#DB9E9A"/>
<path d="M175.567 350.15C175.15 349.526 174.675 348.948 174.117 348.435C172.186 346.661 169.531 345.934 166.957 345.435C150.305 342.205 132.749 347.184 119.301 357.253C112.572 362.291 106.793 368.645 102.628 375.961C98.2021 383.732 95.5047 391.995 91.429 399.869C89.1696 404.236 86.1593 408.277 81.8367 410.779C77.7288 413.156 72.9056 413.902 68.2007 414.54C51.9249 416.747 33.437 419.39 24.144 432.933C21.5616 436.698 19.9076 441.081 16.9717 444.577C11.3553 451.265 2.086 453.552 -6.61677 454.281C-15.3195 455.01 -24.2845 454.604 -32.5306 457.484C-49.6893 463.476 -59.5505 484.938 -52.9177 501.86C63.5838 501.85 180.084 501.84 296.585 501.83C298.067 501.83 299.619 501.813 300.921 501.104C304.488 499.161 303.801 493.852 302.22 490.11C295.564 474.358 281.61 461.871 265.219 456.995C257.827 454.797 249.515 453.812 244.064 448.355C237.034 441.316 237.677 430.021 235.7 420.27C231.269 398.409 209.725 381.352 187.432 382.052C184.244 373.115 181.056 364.177 177.867 355.241C177.241 353.488 176.583 351.684 175.561 350.152L175.567 350.15Z" fill="#DA3E31"/>
<path d="M173.028 402.055C173.028 402.055 212.566 379.22 202.252 366.323C191.937 353.428 175.893 349.94 175.893 349.94L158.129 363.091C158.129 363.091 144.376 356.292 141.511 369.472C138.647 382.651 153.544 381.428 153.544 381.428C153.544 381.428 162.504 384.819 164.04 376C165.575 367.18 178.183 391.665 173.026 402.057L173.028 402.055Z" fill="#F2B3AC"/>
<path d="M174.748 411.453C174.748 411.453 175.512 419.419 170.833 423.332C170.833 423.332 189.997 437.487 238.671 438.291L254.404 398.455C254.404 398.455 231.477 415.886 174.748 411.453Z" fill="#478B35"/>
<path d="M156.389 422.038C149.616 423.424 138.929 426.299 135.614 433.143C133.703 437.09 149.128 434.567 150.47 434.349C153.272 433.894 156.103 433.476 158.868 432.821C162.851 431.879 167.16 430.997 170.562 428.495C174.493 425.605 176.243 420.848 176.487 416.096C176.553 414.814 176.58 413.403 175.78 412.4C174.253 410.484 171.2 411.474 169.052 412.656C162.487 416.272 156.083 422.038 148.861 424.122" fill="#F2B3AC"/>
<path d="M135.614 433.143C135.614 433.143 133.108 436.131 133.873 439.569C134.637 443.007 142.117 445.527 141.146 443.312C140.176 441.096 138.17 438.289 138.17 438.289C138.17 438.289 139.511 436.98 140.463 435.456C141.415 433.933 139.984 440.141 141.99 443.006C143.996 445.871 146.861 442.911 149.058 442.338C151.254 441.764 154.214 440.619 154.214 440.332C154.214 440.044 156.123 441.573 157.079 439.185C158.034 436.797 157.885 433.951 159.392 432.7C160.899 431.448 161.281 428.966 161.281 428.966L150.394 427.915L135.613 433.139L135.614 433.143Z" fill="#F2B3AC"/>
<path d="M199.17 381.427C199.17 381.427 213.034 374.087 225.12 380.231C237.205 386.375 237.425 404.775 231.155 407.894C224.886 411.012 192.081 389.382 192.081 389.382L199.17 381.425V381.427Z" fill="#DA3E31"/>
<path d="M124.256 340.015V348.388" stroke="#0320F3" stroke-width="0.676469" stroke-miterlimit="10"/>
<path d="M128.444 344.202H120.069" stroke="#0320F3" stroke-width="0.676469" stroke-miterlimit="10"/>
<path d="M127.218 341.241L121.295 347.162" stroke="#0320F3" stroke-width="0.676469" stroke-miterlimit="10"/>
<path d="M127.218 347.162L121.295 341.241" stroke="#0320F3" stroke-width="0.676469" stroke-miterlimit="10"/>
<path d="M85.0991 371.674V382.928" stroke="#0320F3" stroke-width="0.676469" stroke-miterlimit="10"/>
<path d="M90.7256 377.302H79.4709" stroke="#0320F3" stroke-width="0.676469" stroke-miterlimit="10"/>
<path d="M89.0783 373.323L81.1196 381.279" stroke="#0320F3" stroke-width="0.676469" stroke-miterlimit="10"/>
<path d="M89.0783 381.279L81.1196 373.323" stroke="#0320F3" stroke-width="0.676469" stroke-miterlimit="10"/>
<path d="M251.845 440.435V451.69" stroke="#0320F3" stroke-width="0.676469" stroke-miterlimit="10"/>
<path d="M257.474 446.062H246.219" stroke="#0320F3" stroke-width="0.676469" stroke-miterlimit="10"/>
<path d="M255.824 442.082L247.866 450.041" stroke="#0320F3" stroke-width="0.676469" stroke-miterlimit="10"/>
<path d="M255.824 450.041L247.866 442.082" stroke="#0320F3" stroke-width="0.676469" stroke-miterlimit="10"/>
<path d="M118.248 396.515V406.461" stroke="white" stroke-width="0.507352" stroke-miterlimit="10"/>
<path d="M123.22 401.489H113.274" stroke="white" stroke-width="0.507352" stroke-miterlimit="10"/>
<path d="M121.764 397.973L114.73 405.005" stroke="white" stroke-width="0.507352" stroke-miterlimit="10"/>
<path d="M121.764 405.005L114.73 397.973" stroke="white" stroke-width="0.507352" stroke-miterlimit="10"/>
<path d="M128.444 431.76V441.707" stroke="white" stroke-width="0.507352" stroke-miterlimit="10"/>
<path d="M133.416 436.733H123.47" stroke="white" stroke-width="0.507352" stroke-miterlimit="10"/>
<path d="M131.96 433.217L124.926 440.249" stroke="white" stroke-width="0.507352" stroke-miterlimit="10"/>
<path d="M131.96 440.249L124.926 433.217" stroke="white" stroke-width="0.507352" stroke-miterlimit="10"/>
<path d="M166.187 405.675V415.62" stroke="white" stroke-width="0.507352" stroke-miterlimit="10"/>
<path d="M171.159 410.647H161.214" stroke="white" stroke-width="0.507352" stroke-miterlimit="10"/>
<path d="M169.703 407.131L162.67 414.163" stroke="white" stroke-width="0.507352" stroke-miterlimit="10"/>
<path d="M169.703 414.163L162.67 407.131" stroke="white" stroke-width="0.507352" stroke-miterlimit="10"/>
<path d="M92.7786 373.323C92.7786 369.507 91.1212 368.745 89.0783 368.745C91.1229 368.745 92.7786 367.845 92.7786 364.167C92.7786 367.845 94.4359 368.745 96.4789 368.745C94.4342 368.745 92.7786 369.507 92.7786 373.323Z" fill="#0320F3"/>
<path d="M126.922 397.569C126.922 393.754 125.264 392.991 123.221 392.991C125.266 392.991 126.922 392.091 126.922 388.413C126.922 392.091 128.579 392.991 130.622 392.991C128.577 392.991 126.922 393.754 126.922 397.569Z" fill="white"/>
<path d="M100.132 438.289C100.132 434.474 98.4746 433.711 96.4317 433.711C98.4763 433.711 100.132 432.811 100.132 429.133C100.132 432.811 101.789 433.711 103.832 433.711C101.788 433.711 100.132 434.474 100.132 438.289Z" fill="white"/>
<path d="M173.307 405.773C173.307 403.223 172.199 402.712 170.833 402.712C172.199 402.712 173.307 402.111 173.307 399.651C173.307 402.11 174.415 402.712 175.781 402.712C174.415 402.712 173.307 403.223 173.307 405.773Z" fill="white"/>
<path d="M77.9521 404.23C77.9521 400.415 76.2947 399.652 74.2518 399.652C76.2964 399.652 77.9521 398.753 77.9521 395.074C77.9521 398.753 79.6094 399.652 81.6524 399.652C79.6077 399.652 77.9521 400.415 77.9521 404.23Z" fill="#0320F3"/>
<path d="M102.484 347.162C102.484 344.738 101.431 344.253 100.132 344.253C101.431 344.253 102.484 343.681 102.484 341.344C102.484 343.681 103.538 344.253 104.837 344.253C103.538 344.253 102.484 344.738 102.484 347.162Z" fill="#0320F3"/>
<path d="M81.1197 366.981C81.8211 366.981 82.3898 366.412 82.3898 365.711C82.3898 365.009 81.8211 364.441 81.1197 364.441C80.4182 364.441 79.8496 365.009 79.8496 365.711C79.8496 366.412 80.4182 366.981 81.1197 366.981Z" fill="#0320F3"/>
<path d="M121.95 390.953C122.651 390.953 123.22 390.384 123.22 389.683C123.22 388.982 122.651 388.413 121.95 388.413C121.248 388.413 120.68 388.982 120.68 389.683C120.68 390.384 121.248 390.953 121.95 390.953Z" fill="white"/>
<path d="M95.2087 427.917C95.9102 427.917 96.4788 427.348 96.4788 426.647C96.4788 425.945 95.9102 425.377 95.2087 425.377C94.5073 425.377 93.9387 425.945 93.9387 426.647C93.9387 427.348 94.5073 427.917 95.2087 427.917Z" fill="white"/>
<path d="M105.298 342.082C105.703 342.082 106.031 341.754 106.031 341.349C106.031 340.945 105.703 340.617 105.298 340.617C104.894 340.617 104.566 340.945 104.566 341.349C104.566 341.754 104.894 342.082 105.298 342.082Z" fill="#0320F3"/>
<path d="M40.9899 399.41C40.9899 396.452 39.7049 395.86 38.1209 395.86C39.7062 395.86 40.9899 395.163 40.9899 392.311C40.9899 395.163 42.2748 395.86 43.8588 395.86C42.2735 395.86 40.9899 396.452 40.9899 399.41Z" fill="#0320F3"/>
<path d="M31.4407 377.721V389.235" stroke="#0320F3" stroke-width="0.692053" stroke-miterlimit="10"/>
<path d="M37.1968 383.479H25.6827" stroke="#0320F3" stroke-width="0.692053" stroke-miterlimit="10"/>
<path d="M35.5118 379.407L27.3698 387.548" stroke="#0320F3" stroke-width="0.692053" stroke-miterlimit="10"/>
<path d="M35.5118 387.548L27.3698 379.407" stroke="#0320F3" stroke-width="0.692053" stroke-miterlimit="10"/>
</g>
</svg>
