<svg width="272" height="272" viewBox="0 0 272 272" fill="none" xmlns="http://www.w3.org/2000/svg">
<mask id="mask0_204_2339" style="mask-type:alpha" maskUnits="userSpaceOnUse" x="0" y="0" width="272" height="272">
<rect width="272" height="272" rx="10" fill="#414141"/>
</mask>
<g mask="url(#mask0_204_2339)">
<rect width="272" height="272" rx="10" fill="#0320F3"/>
<path d="M65.3415 227.909C64.0349 224.99 62.6355 222.113 61.4014 219.163C60.8401 217.823 60.303 216.425 60.0149 215C59.7287 216.427 59.1898 217.825 58.6285 219.163C57.3926 222.114 55.995 224.991 54.6884 227.909C53.3652 230.864 51.5011 233.938 52.1237 237.287C52.8039 240.949 56.3239 244.008 60.0112 244.106H60.0168C63.7041 244.008 67.2242 240.949 67.9044 237.287C68.527 233.938 66.6629 230.864 65.3396 227.909H65.3415Z" fill="#F2F0D7"/>
<path d="M39.0179 201.801C66.4782 189.302 83.5481 198.908 88.6505 205.273V224.37L97 262.128L92.3614 270.809L74.7349 282.093L45.9758 290.339L37.607 292.713C-6.4847 262.128 11.5576 214.301 39.0179 201.801Z" fill="#8E8E8E"/>
<path d="M119.916 192.499C119.916 181.643 128.717 172.842 139.574 172.842C150.43 172.842 159.231 181.643 159.231 192.499H119.916Z" fill="#488C35"/>
<path d="M106.75 245.866C123.756 245.866 137.542 232.08 137.542 215.075C137.542 198.069 123.756 184.283 106.75 184.283C89.7449 184.283 75.9591 198.069 75.9591 215.075C75.9591 232.08 89.7449 245.866 106.75 245.866Z" fill="#8E8E8E"/>
<path d="M137.542 215.075C150.265 215.075 160.579 204.76 160.579 192.037C160.579 179.314 150.265 169 137.542 169C124.819 169 114.504 179.314 114.504 192.037C114.504 204.76 124.819 215.075 137.542 215.075Z" fill="#8E8E8E"/>
<path d="M168.037 222.788C180.76 222.788 191.075 212.473 191.075 199.75C191.075 187.027 180.76 176.713 168.037 176.713C155.314 176.713 145 187.027 145 199.75C145 212.473 155.314 222.788 168.037 222.788Z" fill="#8E8E8E"/>
<path d="M251.249 288.952C263.972 288.952 274.286 278.638 274.286 265.915C274.286 253.191 263.972 242.877 251.249 242.877C238.525 242.877 228.211 253.191 228.211 265.915C228.211 278.638 238.525 288.952 251.249 288.952Z" fill="#8E8E8E"/>
<path d="M162.419 184.491C162.419 184.491 207.844 165.691 250.448 174.462C293.053 183.232 268.738 257.52 252.641 260.611C236.544 263.703 209.016 257.165 209.016 257.165L164.299 231.727L153.961 188.989L162.419 184.491Z" fill="#478B35"/>
<path d="M174.629 184.491C174.629 184.491 227.579 186.565 237.604 195.707C247.629 204.849 243.243 216 235.098 214.811C226.953 213.623 211.56 212.868 203.438 214.811C195.315 216.754 184.349 207.357 184.349 207.357L174.629 184.493V184.491Z" fill="#F2B3AC"/>
<path d="M184.349 188.989C184.349 188.989 213.483 193.366 214.657 199.773C215.832 206.181 209.133 212.867 203.436 214.81C197.739 216.753 185.758 204.77 185.758 204.77L184.349 188.989Z" fill="#DB9E9A"/>
<path d="M184.08 189.161C183.738 188.649 183.349 188.175 182.891 187.755C181.307 186.3 179.13 185.703 177.019 185.294C163.364 182.645 148.967 186.728 137.938 194.986C132.42 199.117 127.681 204.328 124.265 210.327C120.636 216.7 118.424 223.476 115.081 229.934C113.228 233.514 110.76 236.829 107.215 238.88C103.846 240.83 99.8909 241.442 96.0326 241.965C82.6853 243.775 67.5241 245.942 59.9032 257.048C57.7854 260.135 56.4291 263.73 54.0215 266.597C49.4157 272.082 41.8142 273.957 34.6774 274.555C27.5406 275.153 20.1887 274.82 13.4264 277.182C-0.644842 282.095 -8.73169 299.696 -3.29238 313.573C92.2464 313.565 187.784 313.556 283.323 313.548C284.538 313.548 285.811 313.534 286.879 312.953C289.804 311.36 289.24 307.006 287.944 303.937C282.485 291.02 271.042 280.779 257.6 276.781C251.538 274.978 244.722 274.171 240.252 269.695C234.487 263.923 235.014 254.66 233.393 246.663C229.759 228.737 212.092 214.749 193.81 215.323C191.196 207.993 188.581 200.664 185.966 193.335C185.453 191.899 184.913 190.419 184.075 189.162L184.08 189.161Z" fill="#DA3E31"/>
<path d="M181.998 231.727C181.998 231.727 214.422 213 205.963 202.424C197.504 191.849 184.347 188.989 184.347 188.989L169.78 199.773C169.78 199.773 158.501 194.198 156.152 205.006C153.803 215.814 166.02 214.811 166.02 214.811C166.02 214.811 173.367 217.592 174.627 210.359C175.886 203.127 186.225 223.206 181.996 231.728L181.998 231.727Z" fill="#F2B3AC"/>
<path d="M183.408 239.434C183.408 239.434 184.035 245.966 180.198 249.175C180.198 249.175 195.914 260.783 235.829 261.442L248.731 228.774C248.731 228.774 229.93 243.069 183.408 239.434Z" fill="#478B35"/>
<path d="M168.352 248.114C162.798 249.25 154.034 251.608 151.316 257.22C149.749 260.457 162.399 258.388 163.498 258.209C165.796 257.836 168.118 257.494 170.386 256.957C173.652 256.184 177.185 255.46 179.976 253.409C183.199 251.039 184.634 247.138 184.834 243.241C184.888 242.189 184.91 241.033 184.254 240.21C183.002 238.639 180.499 239.45 178.737 240.42C173.354 243.385 168.101 248.114 162.18 249.823" fill="#F2B3AC"/>
<path d="M151.316 257.22C151.316 257.22 149.261 259.671 149.888 262.491C150.515 265.31 156.649 267.376 155.853 265.56C155.057 263.743 153.412 261.441 153.412 261.441C153.412 261.441 154.512 260.367 155.292 259.118C156.073 257.868 154.9 262.959 156.545 265.309C158.19 267.658 160.539 265.231 162.34 264.761C164.142 264.291 166.569 263.352 166.569 263.116C166.569 262.88 168.135 264.134 168.918 262.176C169.702 260.217 169.58 257.883 170.816 256.857C172.051 255.831 172.365 253.795 172.365 253.795L163.436 252.934L151.315 257.218L151.316 257.22Z" fill="#F2B3AC"/>
<path d="M203.436 214.81C203.436 214.81 214.806 208.791 224.716 213.829C234.627 218.868 234.807 233.957 229.666 236.514C224.525 239.072 197.622 221.334 197.622 221.334L203.436 214.808V214.81Z" fill="#DA3E31"/>
<path d="M142.002 180.849V187.716" stroke="#0320F3" stroke-width="0.554749" stroke-miterlimit="10"/>
<path d="M145.436 184.283H138.568" stroke="#0320F3" stroke-width="0.554749" stroke-miterlimit="10"/>
<path d="M144.43 181.855L139.573 186.71" stroke="#0320F3" stroke-width="0.554749" stroke-miterlimit="10"/>
<path d="M144.43 186.71L139.573 181.855" stroke="#0320F3" stroke-width="0.554749" stroke-miterlimit="10"/>
<path d="M109.89 206.812V216.041" stroke="#0320F3" stroke-width="0.554749" stroke-miterlimit="10"/>
<path d="M114.504 211.427H105.275" stroke="#0320F3" stroke-width="0.554749" stroke-miterlimit="10"/>
<path d="M113.153 208.164L106.627 214.689" stroke="#0320F3" stroke-width="0.554749" stroke-miterlimit="10"/>
<path d="M113.153 214.689L106.627 208.164" stroke="#0320F3" stroke-width="0.554749" stroke-miterlimit="10"/>
<path d="M246.633 263.201V272.43" stroke="#0320F3" stroke-width="0.554749" stroke-miterlimit="10"/>
<path d="M251.249 267.815H242.019" stroke="#0320F3" stroke-width="0.554749" stroke-miterlimit="10"/>
<path d="M249.896 264.551L243.37 271.078" stroke="#0320F3" stroke-width="0.554749" stroke-miterlimit="10"/>
<path d="M249.896 271.078L243.37 264.551" stroke="#0320F3" stroke-width="0.554749" stroke-miterlimit="10"/>
<path d="M137.074 227.183V235.34" stroke="white" stroke-width="0.416062" stroke-miterlimit="10"/>
<path d="M141.152 231.262H132.996" stroke="white" stroke-width="0.416062" stroke-miterlimit="10"/>
<path d="M139.958 228.379L134.19 234.146" stroke="white" stroke-width="0.416062" stroke-miterlimit="10"/>
<path d="M139.958 234.146L134.19 228.379" stroke="white" stroke-width="0.416062" stroke-miterlimit="10"/>
<path d="M145.436 256.086V264.244" stroke="white" stroke-width="0.416062" stroke-miterlimit="10"/>
<path d="M149.513 260.165H141.357" stroke="white" stroke-width="0.416062" stroke-miterlimit="10"/>
<path d="M148.319 257.281L142.551 263.048" stroke="white" stroke-width="0.416062" stroke-miterlimit="10"/>
<path d="M148.319 263.048L142.551 257.281" stroke="white" stroke-width="0.416062" stroke-miterlimit="10"/>
<path d="M176.388 234.695V242.851" stroke="white" stroke-width="0.416062" stroke-miterlimit="10"/>
<path d="M180.465 238.772H172.309" stroke="white" stroke-width="0.416062" stroke-miterlimit="10"/>
<path d="M179.271 235.889L173.503 241.656" stroke="white" stroke-width="0.416062" stroke-miterlimit="10"/>
<path d="M179.271 241.656L173.503 235.889" stroke="white" stroke-width="0.416062" stroke-miterlimit="10"/>
<path d="M116.188 208.164C116.188 205.035 114.829 204.41 113.154 204.41C114.83 204.41 116.188 203.672 116.188 200.655C116.188 203.672 117.547 204.41 119.223 204.41C117.546 204.41 116.188 205.035 116.188 208.164Z" fill="#0320F3"/>
<path d="M144.188 228.047C144.188 224.919 142.828 224.293 141.153 224.293C142.83 224.293 144.188 223.555 144.188 220.539C144.188 223.555 145.547 224.293 147.222 224.293C145.545 224.293 144.188 224.919 144.188 228.047Z" fill="white"/>
<path d="M122.218 261.441C122.218 258.312 120.859 257.686 119.184 257.686C120.86 257.686 122.218 256.948 122.218 253.932C122.218 256.948 123.577 257.686 125.253 257.686C123.576 257.686 122.218 258.312 122.218 261.441Z" fill="white"/>
<path d="M182.227 234.775C182.227 232.684 181.318 232.265 180.198 232.265C181.318 232.265 182.227 231.773 182.227 229.755C182.227 231.771 183.135 232.265 184.256 232.265C183.135 232.265 182.227 232.684 182.227 234.775Z" fill="white"/>
<path d="M104.029 233.51C104.029 230.382 102.67 229.756 100.995 229.756C102.672 229.756 104.029 229.018 104.029 226.002C104.029 229.018 105.388 229.756 107.064 229.756C105.387 229.756 104.029 230.382 104.029 233.51Z" fill="#0320F3"/>
<path d="M124.147 186.71C124.147 184.723 123.283 184.325 122.218 184.325C123.283 184.325 124.147 183.856 124.147 181.94C124.147 183.856 125.011 184.325 126.077 184.325C125.011 184.325 124.147 184.723 124.147 186.71Z" fill="#0320F3"/>
<path d="M106.627 202.963C107.202 202.963 107.668 202.497 107.668 201.922C107.668 201.346 107.202 200.88 106.627 200.88C106.052 200.88 105.585 201.346 105.585 201.922C105.585 202.497 106.052 202.963 106.627 202.963Z" fill="#0320F3"/>
<path d="M140.11 222.622C140.686 222.622 141.152 222.156 141.152 221.58C141.152 221.005 140.686 220.539 140.11 220.539C139.535 220.539 139.069 221.005 139.069 221.58C139.069 222.156 139.535 222.622 140.11 222.622Z" fill="white"/>
<path d="M118.181 252.935C118.756 252.935 119.222 252.469 119.222 251.893C119.222 251.318 118.756 250.852 118.181 250.852C117.606 250.852 117.139 251.318 117.139 251.893C117.139 252.469 117.606 252.935 118.181 252.935Z" fill="white"/>
<path d="M126.455 182.544C126.787 182.544 127.056 182.275 127.056 181.944C127.056 181.612 126.787 181.343 126.455 181.343C126.123 181.343 125.855 181.612 125.855 181.944C125.855 182.275 126.123 182.544 126.455 182.544Z" fill="#0320F3"/>
<path d="M73.7178 229.557C73.7178 227.131 72.664 226.646 71.3651 226.646C72.6651 226.646 73.7178 226.074 73.7178 223.736C73.7178 226.074 74.7716 226.646 76.0705 226.646C74.7705 226.646 73.7178 227.131 73.7178 229.557Z" fill="#0320F3"/>
<path d="M65.887 211.771V221.213" stroke="#0320F3" stroke-width="0.567528" stroke-miterlimit="10"/>
<path d="M70.6073 216.492H61.165" stroke="#0320F3" stroke-width="0.567528" stroke-miterlimit="10"/>
<path d="M69.2254 213.154L62.5485 219.829" stroke="#0320F3" stroke-width="0.567528" stroke-miterlimit="10"/>
<path d="M69.2254 219.829L62.5485 213.154" stroke="#0320F3" stroke-width="0.567528" stroke-miterlimit="10"/>
</g>
</svg>
