<svg width="272" height="272" viewBox="0 0 272 272" fill="none" xmlns="http://www.w3.org/2000/svg">
<mask id="mask0_204_2244" style="mask-type:alpha" maskUnits="userSpaceOnUse" x="0" y="0" width="272" height="272">
<rect width="272" height="272" rx="10" fill="#414141"/>
</mask>
<g mask="url(#mask0_204_2244)">
<rect width="272" height="272" rx="10" fill="#F280CB"/>
<path d="M46.9855 56.4207C45.5188 53.613 43.9475 50.8437 42.5592 48.0059C41.9289 46.7172 41.3248 45.3737 41.0024 44C40.68 45.3737 40.0759 46.7172 39.4456 48.0059C38.0573 50.8437 36.4889 53.613 35.0193 56.4207C33.5351 59.264 31.441 62.2197 32.1381 65.4414C32.9019 68.9647 36.8549 71.9068 40.9966 72H41.0024C45.1441 71.9068 49.097 68.962 49.8609 65.4414C50.5609 62.2197 48.4668 59.2613 46.9797 56.4207H46.9855Z" fill="#F2F0D7"/>
<path d="M235.659 146.21C235.007 144.805 234.309 143.422 233.693 142.003C233.413 141.358 233.144 140.687 233.001 140C232.857 140.687 232.589 141.358 232.308 142.003C231.692 143.422 230.994 144.805 230.342 146.21C229.682 147.632 228.751 149.109 229.062 150.72C229.401 152.482 231.158 153.953 232.998 154H233.002C234.842 153.953 236.599 152.482 236.938 150.72C237.249 149.109 236.319 147.632 235.658 146.21H235.659Z" fill="#F2F0D7"/>
<path d="M256.301 107.001C255.39 104.966 254.415 102.96 253.554 100.903C253.164 99.97 252.788 98.9943 252.588 98C252.387 98.9943 252.013 99.9682 251.621 100.903C250.761 102.96 249.785 104.966 248.874 107.001C247.953 109.06 246.652 111.203 247.086 113.537C247.56 116.089 250.015 118.223 252.586 118.291H252.59C255.16 118.223 257.615 116.091 258.089 113.537C258.524 111.203 257.223 109.06 256.301 107.001Z" fill="#F2F0D7"/>
<path d="M30.1531 178.871C29.2566 176.866 28.2964 174.889 27.4494 172.861C27.0642 171.94 26.6959 170.98 26.4991 170C26.3022 170.98 25.9326 171.94 25.5487 172.861C24.7004 174.889 23.7415 176.864 22.845 178.871C21.9372 180.902 20.6582 183.014 21.0845 185.314C21.5519 187.83 23.9667 189.932 26.4977 190H26.5019C29.0328 189.933 31.4476 187.83 31.915 185.314C32.3428 183.012 31.0624 180.901 30.1546 178.871H30.1531Z" fill="#F2F0D7"/>
<path d="M65.3415 227.909C64.0349 224.99 62.6355 222.113 61.4014 219.163C60.8401 217.823 60.303 216.425 60.0149 215C59.7287 216.427 59.1898 217.825 58.6285 219.163C57.3926 222.114 55.995 224.991 54.6884 227.909C53.3652 230.864 51.5011 233.938 52.1237 237.287C52.8039 240.949 56.3239 244.008 60.0112 244.106H60.0168C63.7041 244.008 67.2242 240.949 67.9044 237.287C68.527 233.938 66.6629 230.864 65.3396 227.909H65.3415Z" fill="#F2F0D7"/>
<path d="M172.233 300.894L141.724 271.756L146.866 255.302L225.367 196.341L283.985 183.315L299.068 281.697L172.233 300.894Z" fill="#363242"/>
<path d="M249.723 278.947L245.087 281.847L221.055 244.965L225.69 242.066L249.723 278.947Z" fill="#0640F2"/>
<path d="M182.418 178.648C182.418 178.648 122.898 219.738 141.657 271.729C141.657 271.729 158.856 260.554 171.684 270.08C171.684 270.08 158.356 246.189 166.126 217.215C173.665 189.099 182.418 178.649 182.418 178.649V178.648Z" fill="#F20605"/>
<path d="M204.062 259.976C204.246 260.025 209.476 254.535 209.879 254.176C213.937 250.551 218.485 247.109 223.313 244.057L182.418 178.648C172.804 221.889 204.062 259.976 204.062 259.976Z" fill="#F20605"/>
<path d="M182.418 178.648C182.418 178.648 173.665 189.099 166.126 217.214C158.356 246.189 171.684 270.079 171.684 270.079C171.684 270.079 185.704 255.042 204.062 259.974C204.062 259.974 172.804 221.888 182.418 178.647V178.648Z" fill="#0640F2"/>
<path d="M182.418 178.648C182.418 178.648 245.41 143.111 283.933 182.74C283.933 182.74 266.36 193.314 269.306 209.021C269.306 209.021 253.664 186.578 224.217 180.881C195.642 175.353 182.418 178.648 182.418 178.648Z" fill="#F20605"/>
<path d="M246.049 233.715C246.014 233.901 238.789 236.202 238.288 236.406C233.253 238.469 228.169 241.052 223.313 244.057L182.418 178.648C225.496 188.932 246.049 233.714 246.049 233.714V233.715Z" fill="#F20605"/>
<path d="M182.418 178.648C182.418 178.648 195.643 175.353 224.217 180.881C253.664 186.578 269.306 209.021 269.306 209.021C269.306 209.021 249.651 215.047 246.048 233.715C246.048 233.715 225.495 188.932 182.417 178.65L182.418 178.648Z" fill="#0640F2"/>
<path d="M187.006 180.185L182.369 183.085L176.42 174.473C175.62 173.192 176.009 171.505 177.289 170.705C178.57 169.905 180.257 170.293 181.057 171.574L187.006 180.186V180.185Z" fill="#0640F2"/>
</g>
</svg>
